<?xml version="1.0" encoding="UTF-8" standalone="no"?>
<svg width="40px" height="40px" viewBox="0 0 40 40" version="1.1" xmlns="http://www.w3.org/2000/svg" xmlns:xlink="http://www.w3.org/1999/xlink" xmlns:sketch="http://www.bohemiancoding.com/sketch/ns">
    <!-- Generator: Sketch 3.3.2 (12043) - http://www.bohemiancoding.com/sketch -->
    <title>Behance_hover</title>
    <desc>Created with Sketch.</desc>
    <defs></defs>
    <g id="Page-1" stroke="none" stroke-width="1" fill="none" fill-rule="evenodd" sketch:type="MSPage">
        <path d="M20,0 C8.95430446,0 0,8.95430446 0,20 C0,31.0456955 8.95430446,40 20,40 C31.0456955,40 40,31.0456955 40,20 C40,8.95430446 31.0456955,0 20,0 Z M23.4229354,13.9057586 L29.0081025,13.9057586 L29.0081025,15.2655572 L23.4229354,15.2655572 L23.4229354,13.9057586 Z M27.8104962,19.1262549 C27.4850654,18.7657696 26.9330887,18.5706158 26.2602526,18.5706158 C25.8223337,18.5706158 25.4597556,18.6443871 25.1699025,18.7945457 C24.8863277,18.9426115 24.6535034,19.1267781 24.4756152,19.3444296 C24.2992965,19.564697 24.1784372,19.7980445 24.1083283,20.0470881 C24.0382194,20.2898532 23.9958402,20.5101206 23.9832833,20.7047513 L28.4419994,20.7047513 C28.3765993,20.0057552 28.1369734,19.4893561 27.8104962,19.1262549 L27.8104962,19.1262549 Z M24.6618746,24.3676792 C25.0720639,24.7684509 25.6653735,24.9698831 26.4339553,24.9698831 C26.9864552,24.9698831 27.4641374,24.8301886 27.8649091,24.5518458 C28.2620184,24.273503 28.5037371,23.9763251 28.5968668,23.6676367 L31.0103915,23.6676367 C30.6226998,24.8683822 30.034099,25.7259081 29.230986,26.241784 C28.4378138,26.7602758 27.4698926,27.0182137 26.3423951,27.0182137 C25.5565477,27.0182137 24.8491804,26.891076 24.2140148,26.6404629 C23.5798956,26.3867105 23.0493702,26.0314573 22.60308,25.5679015 C22.1683002,25.1022529 21.8308358,24.5518458 21.5901635,23.9051698 C21.3521072,23.2621562 21.231771,22.55008 21.231771,21.7788823 C21.231771,21.0327981 21.356816,20.3358948 21.6001043,19.6918348 C21.8491478,19.045682 22.1928907,18.4879501 22.6454592,18.0202087 C23.098551,17.5498513 23.6358781,17.1783788 24.2616261,16.9073609 C24.8878973,16.6373893 25.577999,16.5013571 26.3423951,16.5013571 C27.1863178,16.5013571 27.9256004,16.6640726 28.5591964,16.9947354 C29.1906996,17.3212126 29.708145,17.7633172 30.1151952,18.3168635 C30.5217221,18.8693634 30.811052,19.5013898 30.9920795,20.2103267 C31.1710141,20.9182172 31.2343214,21.6574997 31.1825245,22.4313135 L23.9832833,22.4313135 C23.9832833,23.2203001 24.2501157,23.9669075 24.6618746,24.3676792 L24.6618746,24.3676792 Z M15.0710832,24.4131976 C15.370354,24.4131976 15.6544519,24.3870376 15.9218075,24.3268695 C16.1928254,24.2677478 16.4334977,24.1735717 16.6364996,24.0349235 C16.8395014,23.9009842 17.0074489,23.7178639 17.1298778,23.4850396 C17.2523068,23.2543081 17.3109052,22.953991 17.3109052,22.5919361 C17.3109052,21.8819528 17.1110426,21.3775874 16.7139333,21.071515 C16.3157776,20.7696282 15.7847289,20.6189464 15.1317745,20.6189464 L11.8335175,20.6189464 L11.8335175,24.4131976 L15.0710832,24.4131976 L15.0710832,24.4131976 Z M14.903659,18.5481182 C15.4409861,18.5481182 15.8862298,18.4209804 16.2383439,18.1619961 C16.5873187,17.9071973 16.7568357,17.486544 16.7568357,16.9089305 C16.7568357,16.5882085 16.7003301,16.3234689 16.5873187,16.1178511 C16.470645,15.9122332 16.3157776,15.7510874 16.1201005,15.6385992 C15.9259931,15.5214023 15.706772,15.4403062 15.4519733,15.3968805 C15.2024066,15.3476997 14.940283,15.3288644 14.6718811,15.3288644 L11.8335175,15.3288644 L11.8335175,18.5481182 L14.903659,18.5481182 L14.903659,18.5481182 Z M15.2960595,12.9817863 C15.9547691,12.9817863 16.5496483,13.0388151 17.0932538,13.1565353 C17.6337201,13.2711162 18.095183,13.4626077 18.4849675,13.7247312 C18.8689968,13.9873779 19.169314,14.3363528 19.3843495,14.7758413 C19.594153,15.2090515 19.6998395,15.7510874 19.6998395,16.3925314 C19.6998395,17.0862955 19.5423561,17.6654786 19.2273893,18.1285112 C18.9103297,18.5910206 18.4441579,18.9703411 17.8215491,19.2649031 C18.6696574,19.5087146 19.2974982,19.9377391 19.7139659,20.5483143 C20.1325264,21.1625519 20.3370979,21.8976488 20.3370979,22.7598835 C20.3370979,23.4583564 20.2036817,24.0600372 19.9363262,24.5659722 C19.6663546,25.0781857 19.2990678,25.4930838 18.8464992,25.8138058 C18.3902682,26.1366206 17.8660211,26.3741537 17.27899,26.5279747 C16.6982373,26.6823189 16.0955101,26.7602758 15.4781333,26.7602758 L8.8,26.7602758 L8.8,12.9817863 L15.2960595,12.9817863 L15.2960595,12.9817863 Z" id="Behance" fill="#1769FF" sketch:type="MSShapeGroup"></path>
    </g>
</svg>