<?xml version="1.0" encoding="UTF-8" standalone="no"?>
<svg width="40px" height="40px" viewBox="0 0 40 40" version="1.1" xmlns="http://www.w3.org/2000/svg" xmlns:xlink="http://www.w3.org/1999/xlink" xmlns:sketch="http://www.bohemiancoding.com/sketch/ns">
    <!-- Generator: Sketch 3.3.2 (12043) - http://www.bohemiancoding.com/sketch -->
    <title>Behance_header</title>
    <desc>Created with Sketch.</desc>
    <defs></defs>
    <g id="Page-1" stroke="none" stroke-width="1" fill="none" fill-rule="evenodd" sketch:type="MSPage">
        <g id="Home" sketch:type="MSArtboardGroup" transform="translate(-1060.000000, -112.000000)" fill="#DFDFDF">
            <g id="Header" sketch:type="MSLayerGroup">
                <g id="ícones" transform="translate(880.000000, 112.000000)" sketch:type="MSShapeGroup">
                    <path d="M200,0 C188.954304,0 180,8.95430446 180,20 C180,31.0456955 188.954304,40 200,40 C211.045696,40 220,31.0456955 220,20 C220,8.95430446 211.045696,0 200,0 Z M200,2.4 C190.279788,2.4 182.4,10.2797879 182.4,20 C182.4,29.7202121 190.279788,37.6 200,37.6 C209.720212,37.6 217.6,29.7202121 217.6,20 C217.6,10.2797879 209.720212,2.4 200,2.4 Z M203.422935,13.7239724 L209.008103,13.7239724 L209.008103,15.0837709 L203.422935,15.0837709 L203.422935,13.7239724 Z M207.810496,18.9444686 C207.485065,18.5839834 206.933089,18.3888295 206.260253,18.3888295 C205.822334,18.3888295 205.459756,18.4626008 205.169902,18.6127594 C204.886328,18.7608252 204.653503,18.9449918 204.475615,19.1626433 C204.299297,19.3829108 204.178437,19.6162583 204.108328,19.8653018 C204.038219,20.1080669 203.99584,20.3283344 203.983283,20.522965 L208.441999,20.522965 C208.376599,19.8239689 208.136973,19.3075699 207.810496,18.9444686 L207.810496,18.9444686 Z M204.661875,24.1858929 C205.072064,24.5866646 205.665373,24.7880969 206.433955,24.7880969 C206.986455,24.7880969 207.464137,24.6484023 207.864909,24.3700595 C208.262018,24.0917168 208.503737,23.7945388 208.596867,23.4858504 L211.010391,23.4858504 C210.6227,24.6865959 210.034099,25.5441218 209.230986,26.0599977 C208.437814,26.5784896 207.469893,26.8364275 206.342395,26.8364275 C205.556548,26.8364275 204.84918,26.7092897 204.214015,26.4586766 C203.579896,26.2049243 203.04937,25.849671 202.60308,25.3861152 C202.1683,24.9204666 201.830836,24.3700595 201.590163,23.7233835 C201.352107,23.0803699 201.231771,22.3682938 201.231771,21.597096 C201.231771,20.8510119 201.356816,20.1541086 201.600104,19.5100485 C201.849148,18.8638957 202.192891,18.3061638 202.645459,17.8384224 C203.098551,17.368065 203.635878,16.9965925 204.261626,16.7255746 C204.887897,16.4556031 205.577999,16.3195709 206.342395,16.3195709 C207.186318,16.3195709 207.9256,16.4822863 208.559196,16.8129491 C209.1907,17.1394263 209.708145,17.5815309 210.115195,18.1350772 C210.521722,18.6875771 210.811052,19.3196035 210.992079,20.0285404 C211.171014,20.7364309 211.234321,21.4757135 211.182525,22.2495272 L203.983283,22.2495272 C203.983283,23.0385138 204.250116,23.7851212 204.661875,24.1858929 L204.661875,24.1858929 Z M195.071083,24.2314114 C195.370354,24.2314114 195.654452,24.2052513 195.921807,24.1450833 C196.192825,24.0859616 196.433498,23.9917855 196.6365,23.8531373 C196.839501,23.7191979 197.007449,23.5360777 197.129878,23.3032534 C197.252307,23.0725219 197.310905,22.7722047 197.310905,22.4101498 C197.310905,21.7001665 197.111043,21.1958011 196.713933,20.8897287 C196.315778,20.5878419 195.784729,20.4371601 195.131774,20.4371601 L191.833517,20.4371601 L191.833517,24.2314114 L195.071083,24.2314114 L195.071083,24.2314114 Z M194.903659,18.3663319 C195.440986,18.3663319 195.88623,18.2391941 196.238344,17.9802098 C196.587319,17.7254111 196.756836,17.3047577 196.756836,16.7271442 C196.756836,16.4064222 196.70033,16.1416827 196.587319,15.9360648 C196.470645,15.7304469 196.315778,15.5693011 196.120101,15.456813 C195.925993,15.339616 195.706772,15.2585199 195.451973,15.2150943 C195.202407,15.1659134 194.940283,15.1470782 194.671881,15.1470782 L191.833517,15.1470782 L191.833517,18.3663319 L194.903659,18.3663319 L194.903659,18.3663319 Z M195.296059,12.8 C195.954769,12.8 196.549648,12.8570289 197.093254,12.974749 C197.63372,13.08933 198.095183,13.2808214 198.484968,13.5429449 C198.868997,13.8055917 199.169314,14.1545665 199.384349,14.5940551 C199.594153,15.0272652 199.699839,15.5693011 199.699839,16.2107451 C199.699839,16.9045092 199.542356,17.4836924 199.227389,17.946725 C198.91033,18.4092343 198.444158,18.7885548 197.821549,19.0831168 C198.669657,19.3269283 199.297498,19.7559529 199.713966,20.366528 C200.132526,20.9807656 200.337098,21.7158626 200.337098,22.5780973 C200.337098,23.2765701 200.203682,23.8782509 199.936326,24.384186 C199.666355,24.8963994 199.299068,25.3112975 198.846499,25.6320195 C198.390268,25.9548344 197.866021,26.1923675 197.27899,26.3461885 C196.698237,26.5005327 196.09551,26.5784896 195.478133,26.5784896 L188.8,26.5784896 L188.8,12.8 L195.296059,12.8 L195.296059,12.8 Z" id="Behance"></path>
                </g>
            </g>
        </g>
    </g>
</svg>