<?xml version="1.0" encoding="UTF-8" standalone="no"?>
<svg width="40px" height="40px" viewBox="0 0 40 40" version="1.1" xmlns="http://www.w3.org/2000/svg" xmlns:xlink="http://www.w3.org/1999/xlink" xmlns:sketch="http://www.bohemiancoding.com/sketch/ns">
    <!-- Generator: Sketch 3.3.2 (12043) - http://www.bohemiancoding.com/sketch -->
    <title>Behance_footer</title>
    <desc>Created with Sketch.</desc>
    <defs></defs>
    <g id="Page-1" stroke="none" stroke-width="1" fill="none" fill-rule="evenodd" sketch:type="MSPage">
        <g id="Home" sketch:type="MSArtboardGroup" transform="translate(-650.000000, -2544.000000)" fill="#4A4A4A">
            <g id="Footer" sketch:type="MSLayerGroup" transform="translate(0.000000, 2444.000000)">
                <g id="ícones-footer" transform="translate(470.000000, 100.000000)" sketch:type="MSShapeGroup">
                    <path d="M200,0 C188.954304,0 180,8.95430446 180,20 C180,31.0456955 188.954304,40 200,40 C211.045696,40 220,31.0456955 220,20 C220,8.95430446 211.045696,0 200,0 Z M203.422935,13.9057586 L209.008103,13.9057586 L209.008103,15.2655572 L203.422935,15.2655572 L203.422935,13.9057586 Z M207.810496,19.1262549 C207.485065,18.7657696 206.933089,18.5706158 206.260253,18.5706158 C205.822334,18.5706158 205.459756,18.6443871 205.169902,18.7945457 C204.886328,18.9426115 204.653503,19.1267781 204.475615,19.3444296 C204.299297,19.564697 204.178437,19.7980445 204.108328,20.0470881 C204.038219,20.2898532 203.99584,20.5101206 203.983283,20.7047513 L208.441999,20.7047513 C208.376599,20.0057552 208.136973,19.4893561 207.810496,19.1262549 L207.810496,19.1262549 Z M204.661875,24.3676792 C205.072064,24.7684509 205.665373,24.9698831 206.433955,24.9698831 C206.986455,24.9698831 207.464137,24.8301886 207.864909,24.5518458 C208.262018,24.273503 208.503737,23.9763251 208.596867,23.6676367 L211.010391,23.6676367 C210.6227,24.8683822 210.034099,25.7259081 209.230986,26.241784 C208.437814,26.7602758 207.469893,27.0182137 206.342395,27.0182137 C205.556548,27.0182137 204.84918,26.891076 204.214015,26.6404629 C203.579896,26.3867105 203.04937,26.0314573 202.60308,25.5679015 C202.1683,25.1022529 201.830836,24.5518458 201.590163,23.9051698 C201.352107,23.2621562 201.231771,22.55008 201.231771,21.7788823 C201.231771,21.0327981 201.356816,20.3358948 201.600104,19.6918348 C201.849148,19.045682 202.192891,18.4879501 202.645459,18.0202087 C203.098551,17.5498513 203.635878,17.1783788 204.261626,16.9073609 C204.887897,16.6373893 205.577999,16.5013571 206.342395,16.5013571 C207.186318,16.5013571 207.9256,16.6640726 208.559196,16.9947354 C209.1907,17.3212126 209.708145,17.7633172 210.115195,18.3168635 C210.521722,18.8693634 210.811052,19.5013898 210.992079,20.2103267 C211.171014,20.9182172 211.234321,21.6574997 211.182525,22.4313135 L203.983283,22.4313135 C203.983283,23.2203001 204.250116,23.9669075 204.661875,24.3676792 L204.661875,24.3676792 Z M195.071083,24.4131976 C195.370354,24.4131976 195.654452,24.3870376 195.921807,24.3268695 C196.192825,24.2677478 196.433498,24.1735717 196.6365,24.0349235 C196.839501,23.9009842 197.007449,23.7178639 197.129878,23.4850396 C197.252307,23.2543081 197.310905,22.953991 197.310905,22.5919361 C197.310905,21.8819528 197.111043,21.3775874 196.713933,21.071515 C196.315778,20.7696282 195.784729,20.6189464 195.131774,20.6189464 L191.833517,20.6189464 L191.833517,24.4131976 L195.071083,24.4131976 L195.071083,24.4131976 Z M194.903659,18.5481182 C195.440986,18.5481182 195.88623,18.4209804 196.238344,18.1619961 C196.587319,17.9071973 196.756836,17.486544 196.756836,16.9089305 C196.756836,16.5882085 196.70033,16.3234689 196.587319,16.1178511 C196.470645,15.9122332 196.315778,15.7510874 196.120101,15.6385992 C195.925993,15.5214023 195.706772,15.4403062 195.451973,15.3968805 C195.202407,15.3476997 194.940283,15.3288644 194.671881,15.3288644 L191.833517,15.3288644 L191.833517,18.5481182 L194.903659,18.5481182 L194.903659,18.5481182 Z M195.296059,12.9817863 C195.954769,12.9817863 196.549648,13.0388151 197.093254,13.1565353 C197.63372,13.2711162 198.095183,13.4626077 198.484968,13.7247312 C198.868997,13.9873779 199.169314,14.3363528 199.384349,14.7758413 C199.594153,15.2090515 199.699839,15.7510874 199.699839,16.3925314 C199.699839,17.0862955 199.542356,17.6654786 199.227389,18.1285112 C198.91033,18.5910206 198.444158,18.9703411 197.821549,19.2649031 C198.669657,19.5087146 199.297498,19.9377391 199.713966,20.5483143 C200.132526,21.1625519 200.337098,21.8976488 200.337098,22.7598835 C200.337098,23.4583564 200.203682,24.0600372 199.936326,24.5659722 C199.666355,25.0781857 199.299068,25.4930838 198.846499,25.8138058 C198.390268,26.1366206 197.866021,26.3741537 197.27899,26.5279747 C196.698237,26.6823189 196.09551,26.7602758 195.478133,26.7602758 L188.8,26.7602758 L188.8,12.9817863 L195.296059,12.9817863 L195.296059,12.9817863 Z" id="Behance"></path>
                </g>
            </g>
        </g>
    </g>
</svg>