<?xml version="1.0" encoding="UTF-8"?>
<svg width="40px" height="40px" viewBox="0 0 40 40" version="1.1" xmlns="http://www.w3.org/2000/svg" xmlns:xlink="http://www.w3.org/1999/xlink">
    <!-- Generator: Sketch 50 (54983) - http://www.bohemiancoding.com/sketch -->
    <title>Dribbble_header</title>
    <desc>Created with Sketch.</desc>
    <defs></defs>
    <g id="Site" stroke="none" stroke-width="1" fill="none" fill-rule="evenodd">
        <g id="Home-alt-v2" transform="translate(-1325.000000, -100.000000)" fill="#FFFFFF">
            <g id="Header">
                <g id="ícones" transform="translate(1270.000000, 100.000000)">
                    <g id="Dribbble" transform="translate(55.000000, 0.000000)">
                        <path d="M40,20 C40,8.95430446 31.0456955,0 20,0 C8.95430446,0 0,8.95430446 0,20 C0,31.0456955 8.95430446,40 20,40 C31.0456955,40 40,31.0456955 40,20 Z" opacity="0.302845982"></path>
                        <path d="M32.9280299,22.6370981 C32.7540014,23.4802947 32.4962389,24.3081072 32.1585648,25.0994597 C31.8286392,25.8768128 31.4194218,26.6259106 30.9412439,27.3244976 C30.4701945,28.0186746 29.9275502,28.6699302 29.3314421,29.2635984 C28.7340426,29.8547026 28.0767224,30.3926808 27.3788007,30.8629694 C26.6738021,31.3350528 25.919214,31.7412927 25.136835,32.0708178 C24.3396825,32.404753 23.5050795,32.66064 22.6576658,32.833351 C21.7877303,33.0112412 20.8932065,33.102058 19.999406,33.102058 C19.1049339,33.102058 18.2104618,33.0112412 17.341766,32.833351 C16.4930609,32.66064 15.6585096,32.404753 14.8619769,32.0708178 C14.0796496,31.7412927 13.3243383,31.3350528 12.6193397,30.8629694 C11.921418,30.3927321 11.2640978,29.8547026 10.6679897,29.2635984 C10.0712617,28.6699302 9.52861737,28.0186746 9.05689647,27.3244976 C8.58130138,26.6259106 8.17141249,25.8767615 7.84019541,25.0994597 C7.5024697,24.3081072 7.24408731,23.4802434 7.069439,22.6370981 C6.89287943,21.7733896 6.80263672,20.887323 6.80263672,20.0000256 C6.80263672,19.1120617 6.89282777,18.2240977 7.06949066,17.3622865 C7.24413897,16.51909 7.50252135,15.6899954 7.84024707,14.8999249 C8.17146415,14.1220078 8.58135304,13.3722433 9.05694812,12.673605 C9.52866902,11.978864 10.0713134,11.3288391 10.6680413,10.7345042 C11.2641494,10.1433487 11.9214697,9.60665257 12.6193914,9.13708188 C13.3243899,8.66299856 14.0797013,8.25680991 14.8620286,7.92666947 C15.6585612,7.59201638 16.4930609,7.33551397 17.3418176,7.16408503 C18.2105134,6.98752809 19.1049855,6.89794198 19.9994576,6.89794198 C20.8932582,6.89794198 21.7877303,6.98752809 22.6577175,7.16408503 C23.5051311,7.33556525 24.3396825,7.59206766 25.1368867,7.92666947 C25.919214,8.25675863 26.6738538,8.66299856 27.3788523,9.13708188 C28.076774,9.60665257 28.7341459,10.1433487 29.3314938,10.7345042 C29.9276019,11.3288391 30.4702462,11.978864 30.9412956,12.673605 C31.4194218,13.3722433 31.8286392,14.1220591 32.1585648,14.8999249 C32.4962389,15.6899954 32.7540014,16.51909 32.9280299,17.3622865 C33.1065007,18.2240977 33.1973633,19.1120617 33.1973633,20.0000256 C33.1973633,20.887323 33.1065007,21.7733896 32.9280299,22.6370981 Z M8.97047629,17.6930936 C9.26760054,17.6956576 13.9642505,17.754527 19.3755587,16.3272003 C17.4248802,12.886622 15.3407747,10.0788385 15.1906112,9.87982097 C12.0476648,11.3531971 9.70192263,14.2282086 8.97047629,17.6930936 Z M8.73787016,19.6430658 C8.73461584,19.7633173 8.72883039,19.8797228 8.72883039,20.0000256 C8.72883039,22.8743705 9.82114425,25.494777 11.6165454,27.4761325 C11.6126712,27.4703379 14.6969882,22.0382506 20.7791505,20.0857658 C20.9260596,20.0371523 21.0756032,19.9936156 21.2238037,19.9514122 C20.9409365,19.3155406 20.6321897,18.6783357 20.3093408,18.0501048 C14.5062233,19.774804 8.93762319,19.6507065 8.73787016,19.6430658 Z M19.999406,8.81212071 C19.0836517,8.81212071 18.194965,8.92216753 17.3436772,9.12559517 C17.5124884,9.3508168 19.6294987,12.1388062 21.5569837,15.6522534 C25.809652,14.0695484 27.4149081,11.6435955 27.4426473,11.6026741 C25.4583924,9.86571898 22.8529765,8.81212071 19.999406,8.81212071 Z M21.9172314,21.829695 C15.2674073,24.1310553 13.0958171,28.7689566 13.0723216,28.819585 C14.9856926,30.296736 17.3855701,31.1879306 19.999406,31.1879306 C21.5601864,31.1879306 23.0468924,30.8724562 24.3995516,30.3012486 C24.2326516,29.3236985 23.5779142,25.8972222 21.9919774,21.8053883 C21.9668726,21.8136443 21.9417679,21.8207723 21.9172314,21.829695 Z M31.1268433,21.7733383 C30.894857,21.6991362 27.7416311,20.7081507 24.1037704,21.2871529 C25.5821081,25.3201687 26.1827619,28.6046508 26.2974895,29.2789311 C28.8281595,27.5836153 30.6254719,24.8915707 31.1268433,21.7733383 Z M23.1732425,18.9418635 C23.2564084,19.1376504 23.3376113,19.3295913 23.4168513,19.521481 C27.2886096,19.0378083 31.1030299,19.8515701 31.2661073,19.8847995 C31.2403311,17.2324457 30.2845952,14.7981855 28.7032041,12.8924167 C28.6819219,12.9224154 26.8742783,15.5153358 22.4244398,17.3194678 C22.6860249,17.8530358 22.939345,18.3960907 23.1732425,18.9418635 Z" id="Combined-Shape" opacity="0.403515625"></path>
                    </g>
                </g>
            </g>
        </g>
    </g>
</svg>