<?xml version="1.0" encoding="UTF-8" standalone="no"?>
<svg width="40px" height="40px" viewBox="0 0 40 40" version="1.1" xmlns="http://www.w3.org/2000/svg" xmlns:xlink="http://www.w3.org/1999/xlink" xmlns:sketch="http://www.bohemiancoding.com/sketch/ns">
    <!-- Generator: Sketch 3.3.2 (12043) - http://www.bohemiancoding.com/sketch -->
    <title>Dribbble_footer</title>
    <desc>Created with Sketch.</desc>
    <defs></defs>
    <g id="Page-1" stroke="none" stroke-width="1" fill="none" fill-rule="evenodd" sketch:type="MSPage">
        <g id="Home" sketch:type="MSArtboardGroup" transform="translate(-530.000000, -2544.000000)" fill="#4A4A4A">
            <g id="Footer" sketch:type="MSLayerGroup" transform="translate(0.000000, 2444.000000)">
                <g id="ícones-footer" transform="translate(470.000000, 100.000000)" sketch:type="MSShapeGroup">
                    <path d="M100,20 C100,8.95430446 91.0456955,0 80,0 C68.9543045,0 60,8.95430446 60,20 C60,31.0456955 68.9543045,40 80,40 C91.0456955,40 100,31.0456955 100,20 Z M92.9280299,22.6370981 C92.7540014,23.4802947 92.4962389,24.3081072 92.1585648,25.0994597 C91.8286392,25.8768128 91.4194218,26.6259106 90.9412439,27.3244976 C90.4701945,28.0186746 89.9275502,28.6699302 89.3314421,29.2635984 C88.7340426,29.8547026 88.0767224,30.3926808 87.3788007,30.8629694 C86.6738021,31.3350528 85.919214,31.7412927 85.136835,32.0708178 C84.3396825,32.404753 83.5050795,32.66064 82.6576658,32.833351 C81.7877303,33.0112412 80.8932065,33.102058 79.999406,33.102058 C79.1049339,33.102058 78.2104618,33.0112412 77.341766,32.833351 C76.4930609,32.66064 75.6585096,32.404753 74.8619769,32.0708178 C74.0796496,31.7412927 73.3243383,31.3350528 72.6193397,30.8629694 C71.921418,30.3927321 71.2640978,29.8547026 70.6679897,29.2635984 C70.0712617,28.6699302 69.5286174,28.0186746 69.0568965,27.3244976 C68.5813014,26.6259106 68.1714125,25.8767615 67.8401954,25.0994597 C67.5024697,24.3081072 67.2440873,23.4802434 67.069439,22.6370981 C66.8928794,21.7733896 66.8026367,20.887323 66.8026367,20.0000256 C66.8026367,19.1120617 66.8928278,18.2240977 67.0694907,17.3622865 C67.244139,16.51909 67.5025214,15.6899954 67.8402471,14.8999249 C68.1714642,14.1220078 68.581353,13.3722433 69.0569481,12.673605 C69.528669,11.978864 70.0713134,11.3288391 70.6680413,10.7345042 C71.2641494,10.1433487 71.9214697,9.60665257 72.6193914,9.13708188 C73.3243899,8.66299856 74.0797013,8.25680991 74.8620286,7.92666947 C75.6585612,7.59201638 76.4930609,7.33551397 77.3418176,7.16408503 C78.2105134,6.98752809 79.1049855,6.89794198 79.9994576,6.89794198 C80.8932582,6.89794198 81.7877303,6.98752809 82.6577175,7.16408503 C83.5051311,7.33556525 84.3396825,7.59206766 85.1368867,7.92666947 C85.919214,8.25675863 86.6738538,8.66299856 87.3788523,9.13708188 C88.076774,9.60665257 88.7341459,10.1433487 89.3314938,10.7345042 C89.9276019,11.3288391 90.4702462,11.978864 90.9412956,12.673605 C91.4194218,13.3722433 91.8286392,14.1220591 92.1585648,14.8999249 C92.4962389,15.6899954 92.7540014,16.51909 92.9280299,17.3622865 C93.1065007,18.2240977 93.1973633,19.1120617 93.1973633,20.0000256 C93.1973633,20.887323 93.1065007,21.7733896 92.9280299,22.6370981 Z M68.9704763,17.6930936 C69.2676005,17.6956576 73.9642505,17.754527 79.3755587,16.3272003 C77.4248802,12.886622 75.3407747,10.0788385 75.1906112,9.87982097 C72.0476648,11.3531971 69.7019226,14.2282086 68.9704763,17.6930936 Z M68.7378702,19.6430658 C68.7346158,19.7633173 68.7288304,19.8797228 68.7288304,20.0000256 C68.7288304,22.8743705 69.8211442,25.494777 71.6165454,27.4761325 C71.6126712,27.4703379 74.6969882,22.0382506 80.7791505,20.0857658 C80.9260596,20.0371523 81.0756032,19.9936156 81.2238037,19.9514122 C80.9409365,19.3155406 80.6321897,18.6783357 80.3093408,18.0501048 C74.5062233,19.774804 68.9376232,19.6507065 68.7378702,19.6430658 Z M79.999406,8.81212071 C79.0836517,8.81212071 78.194965,8.92216753 77.3436772,9.12559517 C77.5124884,9.3508168 79.6294987,12.1388062 81.5569837,15.6522534 C85.809652,14.0695484 87.4149081,11.6435955 87.4426473,11.6026741 C85.4583924,9.86571898 82.8529765,8.81212071 79.999406,8.81212071 Z M81.9172314,21.829695 C75.2674073,24.1310553 73.0958171,28.7689566 73.0723216,28.819585 C74.9856926,30.296736 77.3855701,31.1879306 79.999406,31.1879306 C81.5601864,31.1879306 83.0468924,30.8724562 84.3995516,30.3012486 C84.2326516,29.3236985 83.5779142,25.8972222 81.9919774,21.8053883 C81.9668726,21.8136443 81.9417679,21.8207723 81.9172314,21.829695 Z M91.1268433,21.7733383 C90.894857,21.6991362 87.7416311,20.7081507 84.1037704,21.2871529 C85.5821081,25.3201687 86.1827619,28.6046508 86.2974895,29.2789311 C88.8281595,27.5836153 90.6254719,24.8915707 91.1268433,21.7733383 Z M83.1732425,18.9418635 C83.2564084,19.1376504 83.3376113,19.3295913 83.4168513,19.521481 C87.2886096,19.0378083 91.1030299,19.8515701 91.2661073,19.8847995 C91.2403311,17.2324457 90.2845952,14.7981855 88.7032041,12.8924167 C88.6819219,12.9224154 86.8742783,15.5153358 82.4244398,17.3194678 C82.6860249,17.8530358 82.939345,18.3960907 83.1732425,18.9418635 Z" id="Dribbble"></path>
                </g>
            </g>
        </g>
    </g>
</svg>