<?xml version="1.0" encoding="UTF-8" standalone="no"?>
<svg width="40px" height="40px" viewBox="0 0 40 40" version="1.1" xmlns="http://www.w3.org/2000/svg" xmlns:xlink="http://www.w3.org/1999/xlink" xmlns:sketch="http://www.bohemiancoding.com/sketch/ns">
    <!-- Generator: Sketch 3.3.2 (12043) - http://www.bohemiancoding.com/sketch -->
    <title>Instagram_hover</title>
    <desc>Created with Sketch.</desc>
    <defs></defs>
    <g id="Page-1" stroke="none" stroke-width="1" fill="none" fill-rule="evenodd" sketch:type="MSPage">
        <path d="M20,0 C8.95430446,0 0,8.95430446 0,20 C0,31.0456955 8.95430446,40 20,40 C31.0456955,40 40,31.0456955 40,20 C40,8.95430446 31.0456955,0 20,0 Z M30.2661752,28.4697649 C30.2838428,28.3788054 30.296799,28.2863835 30.3118164,28.1951315 L30.3118164,11.8048685 C30.2973879,11.7150789 30.2850206,11.6249968 30.2673531,11.5354996 C30.0868495,10.6174226 29.3244945,9.9049551 28.3884085,9.77772876 C28.3495398,9.77275669 28.3115546,9.76427494 28.2732749,9.75754803 L11.7267251,9.75754803 C11.6269034,9.77538896 11.5264928,9.78884278 11.4281434,9.81107083 C10.5144363,10.0178502 9.83835782,10.7487436 9.70820682,11.668283 C9.70290656,11.7065971 9.69495616,11.7446188 9.68818359,11.7829329 L9.68818359,28.2179445 C9.70702899,28.3220653 9.72204641,28.4270636 9.74560315,28.5305996 C9.94760221,29.4179668 10.7102517,30.1058665 11.6174807,30.2216863 C11.6613552,30.2269508 11.7055241,30.2354326 11.7493985,30.242452 L28.2506015,30.242452 C28.3577847,30.2243186 28.4652623,30.2094024 28.5712677,30.1865894 C29.4134212,30.0090574 30.1015725,29.3112136 30.2661752,28.4697649 Z M11.9195959,27.2132951 C11.9195959,27.6493743 12.2997429,28.0243265 12.7387816,28.0243265 C17.5785142,28.0246189 22.4179523,28.0246189 27.2576849,28.0243265 C27.7008461,28.0243265 28.0789318,27.6499593 28.0789318,27.2106628 C28.0792262,24.1826758 28.0789318,21.1549812 28.0789318,18.1272867 L28.0789318,18.0644047 L26.1101771,18.0644047 C26.3881466,18.9467998 26.4735398,19.8444036 26.3645899,20.7592634 C26.255051,21.6744157 25.9582361,22.526101 25.474734,23.3125646 C24.9909374,24.0999055 24.3637392,24.7521233 23.5957894,25.2712653 C21.6052447,26.6178173 18.9845572,26.7362694 16.8724009,25.5587676 C15.8046916,24.9641673 14.966366,24.1350025 14.3818644,23.0665936 C13.5099705,21.4723159 13.3706912,19.7990701 13.882167,18.0629423 C13.2290563,18.0635273 12.5785958,18.0635273 11.9193015,18.0635273 L11.9193015,18.1188049 C11.9193015,21.1503016 11.919007,24.1817984 11.9195959,27.2132951 Z M19.9041535,24.1487488 C22.2392155,24.1984694 24.1278773,22.3453519 24.177052,20.0915445 C24.2274045,17.7672508 22.3399206,15.8474491 20.0001472,15.8489115 C17.7127876,15.8474491 15.8532773,17.6754138 15.8211813,19.937118 C15.7882018,22.2596569 17.6600794,24.100783 19.9041535,24.1487488 Z M28.0786373,14.194384 C28.0789318,13.5477232 28.0789318,12.9007699 28.0786373,12.2541091 C28.0786373,11.7902448 27.7090909,11.4211422 27.2426674,11.4208497 C26.5933847,11.4205572 25.9441021,11.4202647 25.2945249,11.4208497 C24.8292793,11.4214346 24.458555,11.7914147 24.4582606,12.255279 C24.4579661,12.8963828 24.4561994,13.5374866 24.4606163,14.1788829 C24.4612052,14.274522 24.4794616,14.3739633 24.5100854,14.4646303 C24.6266913,14.8059479 24.9414682,15.0153595 25.3269154,15.0171144 C25.6402201,15.0176993 25.9535248,15.0168219 26.2671239,15.0168219 C26.606341,15.0130197 26.9467359,15.0194542 27.2862474,15.0112649 C27.7229305,15.0004433 28.0786373,14.6287084 28.0786373,14.194384 Z" id="Instagram" fill="#3F729B" sketch:type="MSShapeGroup"></path>
    </g>
</svg>