<?xml version="1.0" encoding="UTF-8" standalone="no"?>
<svg width="40px" height="40px" viewBox="0 0 40 40" version="1.1" xmlns="http://www.w3.org/2000/svg" xmlns:xlink="http://www.w3.org/1999/xlink" xmlns:sketch="http://www.bohemiancoding.com/sketch/ns">
    <!-- Generator: Sketch 3.3.2 (12043) - http://www.bohemiancoding.com/sketch -->
    <title>Instagram_header</title>
    <desc>Created with Sketch.</desc>
    <defs></defs>
    <g id="Page-1" stroke="none" stroke-width="1" fill="none" fill-rule="evenodd" sketch:type="MSPage">
        <g id="Home" sketch:type="MSArtboardGroup" transform="translate(-1180.000000, -112.000000)" fill="#DFDFDF">
            <g id="Header" sketch:type="MSLayerGroup">
                <g id="ícones" transform="translate(880.000000, 112.000000)" sketch:type="MSShapeGroup">
                    <path d="M320,0 C308.954304,0 300,8.95430446 300,20 C300,31.0456955 308.954304,40 320,40 C331.045696,40 340,31.0456955 340,20 C340,8.95430446 331.045696,0 320,0 Z M320,2.4 C310.279788,2.4 302.4,10.2797879 302.4,20 C302.4,29.7202121 310.279788,37.6 320,37.6 C329.720212,37.6 337.6,29.7202121 337.6,20 C337.6,10.2797879 329.720212,2.4 320,2.4 Z M328.967068,27.6077327 C328.9825,27.5260308 328.993817,27.4430154 329.006934,27.3610508 L329.006934,12.6389492 C328.994331,12.5582981 328.983529,12.4773844 328.968097,12.396996 C328.810435,11.5723587 328.14455,10.9324043 327.326918,10.8181268 C327.292968,10.8136608 327.25979,10.8060423 327.226354,10.8 L312.773646,10.8 C312.686456,10.8160251 312.598751,10.8281097 312.512847,10.8480754 C311.714763,11.0338093 311.124237,11.6903141 311.010556,12.516265 C311.005926,12.5506796 310.998982,12.5848315 310.993066,12.6192461 L310.993066,27.381542 C311.009527,27.4750657 311.022644,27.5693775 311.04322,27.6623758 C311.219658,28.4594289 311.885799,29.0773158 312.678226,29.1813478 C312.716548,29.1860765 312.755128,29.193695 312.79345,29.2 L327.20655,29.2 C327.30017,29.1837122 327.394047,29.1703141 327.486638,29.149823 C328.222224,28.9903598 328.823294,28.3635408 328.967068,27.6077327 Z M312.94211,26.4791433 C312.94211,26.8708395 313.274152,27.2076299 313.657634,27.2076299 C317.884935,27.2078926 322.111979,27.2078926 326.339279,27.2076299 C326.726362,27.2076299 327.056604,26.8713649 327.056604,26.476779 C327.056861,23.7569732 327.056604,21.03743 327.056604,18.3178869 L327.056604,18.2614049 L325.33698,18.2614049 C325.579775,19.053992 325.654362,19.8602399 325.559199,20.6819874 C325.463521,21.5039977 325.204266,22.2690006 324.781948,22.9754198 C324.359372,23.6826271 323.811541,24.2684637 323.140769,24.7347687 C321.402113,25.9442718 319.113054,26.0506682 317.268175,24.9930097 C316.335576,24.4589263 315.603335,23.7141519 315.092797,22.7544832 C314.331235,21.3224672 314.20958,19.8195203 314.656333,18.2600914 C314.085868,18.2606168 313.517719,18.2606168 312.941853,18.2606168 L312.941853,18.3102684 C312.941853,21.0332267 312.941596,23.756185 312.94211,26.4791433 Z M319.916282,23.7264991 C321.95586,23.7711593 323.605525,22.1066476 323.648477,20.0822273 C323.692458,17.9944946 322.043821,16.2700857 320.000129,16.2713992 C318.002217,16.2700857 316.378014,17.9120046 316.349979,19.943518 C316.321173,22.0296745 317.956179,23.6834152 319.916282,23.7264991 Z M327.056347,14.7852656 C327.056604,14.2044203 327.056604,13.6233124 327.056347,13.0424672 C327.056347,12.6258138 326.733563,12.2942776 326.326162,12.2940148 C325.759041,12.2937521 325.191921,12.2934894 324.624543,12.2940148 C324.21817,12.2945403 323.894358,12.6268646 323.894101,13.043518 C323.893844,13.6193718 323.892301,14.1952256 323.896159,14.7713421 C323.896673,14.8572473 323.912619,14.9465677 323.939368,15.0280069 C324.041218,15.334586 324.316163,15.5226842 324.652834,15.5242604 C324.926493,15.5247858 325.200151,15.5239977 325.474066,15.5239977 C325.770358,15.5205825 326.067679,15.5263621 326.364228,15.5190063 C326.745652,15.5092861 327.056347,15.1753855 327.056347,14.7852656 Z" id="Instagram"></path>
                </g>
            </g>
        </g>
    </g>
</svg>