<?xml version="1.0" encoding="UTF-8" standalone="no"?>
<svg width="40px" height="40px" viewBox="0 0 40 40" version="1.1" xmlns="http://www.w3.org/2000/svg" xmlns:xlink="http://www.w3.org/1999/xlink" xmlns:sketch="http://www.bohemiancoding.com/sketch/ns">
    <!-- Generator: Sketch 3.3.2 (12043) - http://www.bohemiancoding.com/sketch -->
    <title>Instagram_footer</title>
    <desc>Created with Sketch.</desc>
    <defs></defs>
    <g id="Page-1" stroke="none" stroke-width="1" fill="none" fill-rule="evenodd" sketch:type="MSPage">
        <g id="Home" sketch:type="MSArtboardGroup" transform="translate(-770.000000, -2544.000000)" fill="#4A4A4A">
            <g id="Footer" sketch:type="MSLayerGroup" transform="translate(0.000000, 2444.000000)">
                <g id="ícones-footer" transform="translate(470.000000, 100.000000)" sketch:type="MSShapeGroup">
                    <path d="M320,0 C308.954304,0 300,8.95430446 300,20 C300,31.0456955 308.954304,40 320,40 C331.045696,40 340,31.0456955 340,20 C340,8.95430446 331.045696,0 320,0 Z M330.266175,28.4697649 C330.283843,28.3788054 330.296799,28.2863835 330.311816,28.1951315 L330.311816,11.8048685 C330.297388,11.7150789 330.285021,11.6249968 330.267353,11.5354996 C330.08685,10.6174226 329.324494,9.9049551 328.388408,9.77772876 C328.34954,9.77275669 328.311555,9.76427494 328.273275,9.75754803 L311.726725,9.75754803 C311.626903,9.77538896 311.526493,9.78884278 311.428143,9.81107083 C310.514436,10.0178502 309.838358,10.7487436 309.708207,11.668283 C309.702907,11.7065971 309.694956,11.7446188 309.688184,11.7829329 L309.688184,28.2179445 C309.707029,28.3220653 309.722046,28.4270636 309.745603,28.5305996 C309.947602,29.4179668 310.710252,30.1058665 311.617481,30.2216863 C311.661355,30.2269508 311.705524,30.2354326 311.749398,30.242452 L328.250602,30.242452 C328.357785,30.2243186 328.465262,30.2094024 328.571268,30.1865894 C329.413421,30.0090574 330.101572,29.3112136 330.266175,28.4697649 Z M311.919596,27.2132951 C311.919596,27.6493743 312.299743,28.0243265 312.738782,28.0243265 C317.578514,28.0246189 322.417952,28.0246189 327.257685,28.0243265 C327.700846,28.0243265 328.078932,27.6499593 328.078932,27.2106628 C328.079226,24.1826758 328.078932,21.1549812 328.078932,18.1272867 L328.078932,18.0644047 L326.110177,18.0644047 C326.388147,18.9467998 326.47354,19.8444036 326.36459,20.7592634 C326.255051,21.6744157 325.958236,22.526101 325.474734,23.3125646 C324.990937,24.0999055 324.363739,24.7521233 323.595789,25.2712653 C321.605245,26.6178173 318.984557,26.7362694 316.872401,25.5587676 C315.804692,24.9641673 314.966366,24.1350025 314.381864,23.0665936 C313.50997,21.4723159 313.370691,19.7990701 313.882167,18.0629423 C313.229056,18.0635273 312.578596,18.0635273 311.919301,18.0635273 L311.919301,18.1188049 C311.919301,21.1503016 311.919007,24.1817984 311.919596,27.2132951 Z M319.904154,24.1487488 C322.239216,24.1984694 324.127877,22.3453519 324.177052,20.0915445 C324.227405,17.7672508 322.339921,15.8474491 320.000147,15.8489115 C317.712788,15.8474491 315.853277,17.6754138 315.821181,19.937118 C315.788202,22.2596569 317.660079,24.100783 319.904154,24.1487488 Z M328.078637,14.194384 C328.078932,13.5477232 328.078932,12.9007699 328.078637,12.2541091 C328.078637,11.7902448 327.709091,11.4211422 327.242667,11.4208497 C326.593385,11.4205572 325.944102,11.4202647 325.294525,11.4208497 C324.829279,11.4214346 324.458555,11.7914147 324.458261,12.255279 C324.457966,12.8963828 324.456199,13.5374866 324.460616,14.1788829 C324.461205,14.274522 324.479462,14.3739633 324.510085,14.4646303 C324.626691,14.8059479 324.941468,15.0153595 325.326915,15.0171144 C325.64022,15.0176993 325.953525,15.0168219 326.267124,15.0168219 C326.606341,15.0130197 326.946736,15.0194542 327.286247,15.0112649 C327.722931,15.0004433 328.078637,14.6287084 328.078637,14.194384 Z" id="Instagram"></path>
                </g>
            </g>
        </g>
    </g>
</svg>