<?xml version="1.0" encoding="UTF-8" standalone="no"?>
<svg width="40px" height="40px" viewBox="0 0 40 40" version="1.1" xmlns="http://www.w3.org/2000/svg" xmlns:xlink="http://www.w3.org/1999/xlink" xmlns:sketch="http://www.bohemiancoding.com/sketch/ns">
    <!-- Generator: Sketch 3.3.2 (12043) - http://www.bohemiancoding.com/sketch -->
    <title>LinkedIn_footer</title>
    <desc>Created with Sketch.</desc>
    <defs></defs>
    <g id="Page-1" stroke="none" stroke-width="1" fill="none" fill-rule="evenodd" sketch:type="MSPage">
        <g id="Home" sketch:type="MSArtboardGroup" transform="translate(-590.000000, -2544.000000)" fill="#4A4A4A">
            <g id="Footer" sketch:type="MSLayerGroup" transform="translate(0.000000, 2444.000000)">
                <g id="ícones-footer" transform="translate(470.000000, 100.000000)" sketch:type="MSShapeGroup">
                    <path d="M140,40 C151.045696,40 160,31.0456955 160,20 C160,8.95430446 151.045696,0 140,0 C128.954304,0 120,8.95430446 120,20 C120,31.0456955 128.954304,40 140,40 Z M130.611719,15.6868311 L130.611719,28.0965476 L134.631683,28.0965476 L134.631683,15.6868311 L130.611719,15.6868311 Z M132.885984,9.61171875 C131.51078,9.61171875 130.611719,10.5384796 130.611719,11.7552444 C130.611719,12.9468059 131.484207,13.9002527 132.833802,13.9002527 L132.859491,13.9002527 C134.261188,13.9002527 135.134158,12.9468059 135.134158,11.7552444 C135.108067,10.5384796 134.261188,9.61171875 132.885984,9.61171875 Z M144.759791,15.3999023 C142.625455,15.3999023 141.669877,16.6043949 141.136333,17.4493682 L141.136333,15.691636 L137.115887,15.691636 C137.168872,16.8560996 137.115887,28.1013525 137.115887,28.1013525 L141.136333,28.1013525 L141.136333,21.170743 C141.136333,20.7998575 141.162424,20.4298779 141.268715,20.1643361 C141.55925,19.4233886 142.220761,18.6562494 143.331361,18.6562494 C144.786605,18.6562494 145.368317,19.7941918 145.368317,21.4618177 L145.368317,28.1010231 L149.388121,28.1010231 L149.388281,20.9856709 C149.388281,17.1739427 147.405113,15.3999023 144.759791,15.3999023 Z" id="LinkedIn"></path>
                </g>
            </g>
        </g>
    </g>
</svg>