<?xml version="1.0" encoding="UTF-8"?>
<svg width="386px" height="153px" viewBox="0 0 386 153" version="1.1" xmlns="http://www.w3.org/2000/svg" xmlns:xlink="http://www.w3.org/1999/xlink">
    <!-- Generator: Sketch 50 (54983) - http://www.bohemiancoding.com/sketch -->
    <title>LOGO</title>
    <desc>Created with Sketch.</desc>
    <defs></defs>
    <g id="LOGO" stroke="none" stroke-width="1" fill="none" fill-rule="evenodd">
        <path d="M32.1699,18.1161 C27.8799,18.1161 24.5339,19.8731 22.1309,23.3871 C19.7279,26.9001 18.5259,31.7451 18.5259,37.9201 C18.5259,50.7581 23.4089,57.1761 33.1739,57.1761 C36.1239,57.1761 38.9839,56.7651 41.7529,55.9441 C44.5199,55.1231 47.3039,54.1351 50.1029,52.9781 L50.1029,68.2191 C44.5359,70.6831 38.2389,71.9151 31.2119,71.9151 C21.1419,71.9151 13.4229,68.9941 8.0539,63.1541 C2.6849,57.3131 -0.0001,48.8711 -0.0001,37.8281 C-0.0001,30.9231 1.2999,24.8541 3.9009,19.6221 C6.5029,14.3901 10.2439,10.3661 15.1269,7.5531 C20.0089,4.7391 25.7509,3.3311 32.3529,3.3311 C39.5619,3.3311 46.4519,4.8991 53.0229,8.0321 L47.5019,22.2231 C45.0379,21.0671 42.5739,20.0941 40.1089,19.3031 C37.6459,18.5121 34.9989,18.1161 32.1699,18.1161" id="Fill-1" fill="#FFFFFF"></path>
        <path d="M75.0703,59.3207 C77.2303,59.3207 79.0783,58.6357 80.6143,57.2677 C82.1503,55.8987 82.9193,54.1187 82.9193,51.9287 L82.9193,47.9127 L78.8123,48.0957 C72.9403,48.3087 70.0053,50.4687 70.0053,54.5747 C70.0053,57.7397 71.6943,59.3207 75.0703,59.3207 Z M88.3033,71.0027 L84.8813,64.1577 L84.5163,64.1577 C82.1123,67.1397 79.6633,69.1767 77.1693,70.2727 C74.6743,71.3677 71.4493,71.9147 67.4953,71.9147 C62.6283,71.9147 58.7953,70.4547 55.9963,67.5347 C53.1973,64.6137 51.7983,60.5077 51.7983,55.2147 C51.7983,49.7087 53.7153,45.6087 57.5483,42.9167 C61.3813,40.2247 66.9323,38.7117 74.2033,38.3767 L82.8273,38.1027 L82.8273,37.3727 C82.8273,33.1137 80.7283,30.9837 76.5303,30.9837 C72.7583,30.9837 67.9663,32.2617 62.1563,34.8167 L57.0003,23.0447 C63.0243,19.9417 70.6283,18.3897 79.8163,18.3897 C86.4473,18.3897 91.5813,20.0327 95.2163,23.3187 C98.8513,26.6037 100.6693,31.1967 100.6693,37.0987 L100.6693,71.0027 L88.3033,71.0027 Z" id="Fill-4" fill="#FFFFFF"></path>
        <path d="M134.6743,18.39 C136.2253,18.39 137.6993,18.512 139.1003,18.755 L140.1043,18.937 L138.5063,35.775 C137.0453,35.41 135.0223,35.228 132.4383,35.228 C128.5433,35.228 125.7133,36.118 123.9493,37.897 C122.1863,39.677 121.3033,42.24 121.3033,45.586 L121.3033,71.002 L103.4623,71.002 L103.4623,19.303 L116.7403,19.303 L119.5243,27.562 L120.3913,27.562 C121.8813,24.824 123.9573,22.611 126.6193,20.922 C129.2813,19.234 131.9653,18.39 134.6743,18.39" id="Fill-6" fill="#FFFFFF"></path>
        <polygon id="Fill-8" fill="#FFFFFF" points="141.705 71.002 159.547 71.002 159.547 0 141.705 0"></polygon>
        <path d="M180.3169,45.0385 C180.3169,49.4805 180.9099,52.8645 182.0959,55.1915 C183.2829,57.5185 185.2749,58.6825 188.0739,58.6825 C190.8409,58.6825 192.7959,57.5185 193.9369,55.1915 C195.0789,52.8645 195.6489,49.4805 195.6489,45.0385 C195.6489,40.6275 195.0709,37.2965 193.9149,35.0455 C192.7579,32.7945 190.7809,31.6685 187.9829,31.6685 C185.2449,31.6685 183.2829,32.7865 182.0959,35.0225 C180.9099,37.2585 180.3169,40.5975 180.3169,45.0385 M213.8099,45.0385 C213.8099,53.4965 211.5359,60.0895 206.9879,64.8195 C202.4399,69.5505 196.0749,71.9145 187.8909,71.9145 C180.0429,71.9145 173.7979,69.4965 169.1599,64.6595 C164.5199,59.8225 162.2009,53.2825 162.2009,45.0385 C162.2009,36.6125 164.4749,30.0645 169.0229,25.3945 C173.5709,20.7255 179.9519,18.3905 188.1659,18.3905 C193.2449,18.3905 197.7319,19.4705 201.6269,21.6295 C205.5199,23.7895 208.5239,26.8855 210.6379,30.9155 C212.7529,34.9465 213.8099,39.6535 213.8099,45.0385" id="Fill-10" fill="#FFFFFF"></path>
        <path d="M256.436,55.1229 C256.436,60.6599 254.549,64.8419 250.778,67.6709 C247.005,70.4999 241.59,71.9149 234.534,71.9149 C230.701,71.9149 227.37,71.7099 224.54,71.2989 C221.711,70.8879 218.821,70.1349 215.871,69.0399 L215.871,54.7579 C218.638,55.9749 221.672,56.9789 224.974,57.7689 C228.274,58.5609 231.217,58.9559 233.803,58.9559 C237.666,58.9559 239.598,58.0739 239.598,56.3089 C239.598,55.3959 239.058,54.5829 237.979,53.8679 C236.899,53.1539 233.757,51.7619 228.556,49.6929 C223.81,47.7469 220.495,45.5329 218.608,43.0539 C216.722,40.5739 215.779,37.4339 215.779,33.6309 C215.779,28.8249 217.634,25.0819 221.346,22.4049 C225.057,19.7289 230.305,18.3899 237.088,18.3899 C240.496,18.3899 243.698,18.7629 246.694,19.5079 C249.69,20.2539 252.801,21.3409 256.026,22.7699 L251.189,34.2689 C248.816,33.2049 246.306,32.2999 243.66,31.5549 C241.013,30.8099 238.853,30.4359 237.18,30.4359 C234.259,30.4359 232.799,31.1519 232.799,32.5809 C232.799,33.4639 233.309,34.2169 234.329,34.8399 C235.347,35.4639 238.29,36.7329 243.158,38.6499 C246.778,40.1409 249.478,41.6009 251.257,43.0309 C253.037,44.4609 254.344,46.1419 255.181,48.0729 C256.018,50.0049 256.436,52.3549 256.436,55.1229" id="Fill-11" fill="#FFFFFF"></path>
        <path d="M31.5308,151.1449 L17.8868,103.0959 L17.4768,103.0959 C18.1158,111.2789 18.4348,117.6369 18.4348,122.1689 L18.4348,151.1449 L2.4638,151.1449 L2.4638,84.4329 L26.4658,84.4329 L40.3838,131.7969 L40.7488,131.7969 L54.3918,84.4329 L78.4398,84.4329 L78.4398,151.1449 L61.8758,151.1449 L61.8758,121.8949 C61.8758,120.3749 61.8988,118.6869 61.9438,116.8309 C61.9898,114.9759 62.1948,110.4269 62.5598,103.1869 L62.1498,103.1869 L48.6878,151.1449 L31.5308,151.1449 Z" id="Fill-12" fill="#FFFFFF"></path>
        <path d="M104.7759,139.4633 C106.9359,139.4633 108.7839,138.7783 110.3199,137.4093 C111.8559,136.0413 112.6249,134.2613 112.6249,132.0713 L112.6249,128.0553 L108.5179,128.2383 C102.6459,128.4513 99.7109,130.6103 99.7109,134.7183 C99.7109,137.8823 101.3999,139.4633 104.7759,139.4633 Z M118.0089,151.1453 L114.5869,144.3003 L114.2209,144.3003 C111.8179,147.2813 109.3689,149.3193 106.8759,150.4143 C104.3799,151.5103 101.1549,152.0583 97.2009,152.0583 C92.3339,152.0583 88.5009,150.5973 85.7019,147.6773 C82.9029,144.7563 81.5039,140.6503 81.5039,135.3573 C81.5039,129.8513 83.4209,125.7513 87.2539,123.0593 C91.0869,120.3673 96.6379,118.8543 103.9089,118.5193 L112.5329,118.2453 L112.5329,117.5153 C112.5329,113.2563 110.4339,111.1263 106.2359,111.1263 C102.4639,111.1263 97.6719,112.4043 91.8619,114.9593 L86.7059,103.1873 C92.7299,100.0843 100.3339,98.5323 109.5219,98.5323 C116.1529,98.5323 121.2869,100.1753 124.9219,103.4613 C128.5569,106.7463 130.3749,111.3393 130.3749,117.2413 L130.3749,151.1453 L118.0089,151.1453 Z" id="Fill-13" fill="#FFFFFF"></path>
        <path d="M158.5825,152.058 C150.1245,152.058 143.7135,149.776 139.3495,145.213 C134.9825,140.65 132.8005,134.095 132.8005,125.546 C132.8005,116.967 135.1575,110.321 139.8735,105.605 C144.5885,100.891 151.2965,98.533 159.9965,98.533 C165.9895,98.533 171.6325,99.841 176.9265,102.457 L171.6785,115.644 C169.5185,114.702 167.5255,113.949 165.7005,113.385 C163.8755,112.823 161.9745,112.541 159.9965,112.541 C157.1055,112.541 154.8705,113.667 153.2885,115.918 C151.7065,118.169 150.9165,121.348 150.9165,125.454 C150.9165,133.73 153.9735,137.867 160.0885,137.867 C165.3195,137.867 170.3395,136.345 175.1455,133.303 L175.1455,147.495 C170.5525,150.537 165.0305,152.058 158.5825,152.058" id="Fill-14" fill="#FFFFFF"></path>
        <path d="M210.4722,151.1449 L210.4722,122.9449 C210.4722,116.0089 208.4182,112.5409 204.3122,112.5409 C201.3912,112.5409 199.2392,113.7659 197.8552,116.2139 C196.4702,118.6639 195.7792,122.7319 195.7792,128.4199 L195.7792,151.1449 L177.9372,151.1449 L177.9372,80.1429 L195.7792,80.1429 L195.7792,90.2279 C195.7792,94.7909 195.5342,99.9929 195.0482,105.8329 L195.8692,105.8329 C197.5742,103.1569 199.5962,101.2699 201.9392,100.1749 C204.2812,99.0799 207.0042,98.5329 210.1072,98.5329 C215.8862,98.5329 220.3812,100.1979 223.5902,103.5289 C226.8002,106.8599 228.4052,111.5219 228.4052,117.5149 L228.4052,151.1449 L210.4722,151.1449 Z" id="Fill-15" fill="#FFFFFF"></path>
        <path d="M253.5542,139.4633 C255.7132,139.4633 257.5622,138.7783 259.0982,137.4093 C260.6342,136.0413 261.4032,134.2613 261.4032,132.0713 L261.4032,128.0553 L257.2962,128.2383 C251.4242,128.4513 248.4892,130.6103 248.4892,134.7183 C248.4892,137.8823 250.1772,139.4633 253.5542,139.4633 Z M266.7872,151.1453 L263.3652,144.3003 L262.9992,144.3003 C260.5962,147.2813 258.1472,149.3193 255.6532,150.4143 C253.1582,151.5103 249.9342,152.0583 245.9792,152.0583 C241.1122,152.0583 237.2792,150.5973 234.4812,147.6773 C231.6812,144.7563 230.2832,140.6503 230.2832,135.3573 C230.2832,129.8513 232.1992,125.7513 236.0322,123.0593 C239.8652,120.3673 245.4162,118.8543 252.6872,118.5193 L261.3112,118.2453 L261.3112,117.5153 C261.3112,113.2563 259.2122,111.1263 255.0142,111.1263 C251.2412,111.1263 246.4502,112.4043 240.6412,114.9593 L235.4842,103.1873 C241.5072,100.0843 249.1132,98.5323 258.3002,98.5323 C264.9312,98.5323 270.0652,100.1753 273.7002,103.4613 C277.3352,106.7463 279.1532,111.3393 279.1532,117.2413 L279.1532,151.1453 L266.7872,151.1453 Z" id="Fill-16" fill="#FFFFFF"></path>
        <path d="M307.1782,137.9574 C310.0362,137.9574 312.0522,137.0614 313.2242,135.2654 C314.3952,133.4714 315.0272,130.7024 315.1172,126.9604 L315.1172,125.5454 C315.1172,120.9824 314.4632,117.7354 313.1562,115.8034 C311.8472,113.8724 309.7932,112.9064 306.9952,112.9064 C304.6532,112.9064 302.8352,114.0094 301.5422,116.2144 C300.2492,118.4204 299.6032,121.5614 299.6032,125.6374 C299.6032,129.6524 300.2572,132.7104 301.5652,134.8094 C302.8722,136.9074 304.7432,137.9574 307.1782,137.9574 M299.8772,152.0584 C296.1962,152.0584 292.9792,151.0084 290.2262,148.9084 C287.4722,146.8104 285.3432,143.7234 283.8372,139.6454 C282.3312,135.5694 281.5782,130.8094 281.5782,125.3634 C281.5782,116.9674 283.2672,110.3964 286.6442,105.6504 C290.0212,100.9054 294.6592,98.5324 300.5612,98.5324 C303.4512,98.5324 305.9842,99.1104 308.1582,100.2664 C310.3332,101.4224 312.3192,103.3694 314.1142,106.1074 L314.4792,106.1074 C313.9012,102.0614 313.6122,98.0154 313.6122,93.9694 L313.6122,80.1434 L331.5902,80.1434 L331.5902,151.1454 L318.1292,151.1454 L314.2962,144.6194 L313.6122,144.6194 C310.5382,149.5784 305.9602,152.0584 299.8772,152.0584" id="Fill-17" fill="#FFFFFF"></path>
        <path d="M352.3149,125.181 C352.3149,129.622 352.9079,133.006 354.0939,135.333 C355.2809,137.66 357.2729,138.825 360.0719,138.825 C362.8389,138.825 364.7939,137.66 365.9349,135.333 C367.0769,133.006 367.6469,129.622 367.6469,125.181 C367.6469,120.77 367.0689,117.439 365.9129,115.188 C364.7559,112.937 362.7789,111.811 359.9809,111.811 C357.2429,111.811 355.2809,112.929 354.0939,115.165 C352.9079,117.401 352.3149,120.74 352.3149,125.181 M385.8079,125.181 C385.8079,133.638 383.5339,140.232 378.9859,144.962 C374.4379,149.693 368.0729,152.058 359.8889,152.058 C352.0409,152.058 345.7959,149.639 341.1579,144.802 C336.5179,139.965 334.1989,133.425 334.1989,125.181 C334.1989,116.755 336.4729,110.207 341.0209,105.537 C345.5689,100.868 351.9499,98.533 360.1639,98.533 C365.2429,98.533 369.7299,99.613 373.6249,101.772 C377.5179,103.932 380.5219,107.028 382.6359,111.058 C384.7509,115.089 385.8079,119.796 385.8079,125.181" id="Fill-18" fill="#FFFFFF"></path>
    </g>
</svg>