<?xml version="1.0" encoding="UTF-8" standalone="no"?>
<svg width="40px" height="40px" viewBox="0 0 40 40" version="1.1" xmlns="http://www.w3.org/2000/svg" xmlns:xlink="http://www.w3.org/1999/xlink" xmlns:sketch="http://www.bohemiancoding.com/sketch/ns">
    <!-- Generator: Sketch 3.3.2 (12043) - http://www.bohemiancoding.com/sketch -->
    <title>Twitter_header</title>
    <desc>Created with Sketch.</desc>
    <defs></defs>
    <g id="Page-1" stroke="none" stroke-width="1" fill="none" fill-rule="evenodd" sketch:type="MSPage">
        <g id="Home" sketch:type="MSArtboardGroup" transform="translate(-1120.000000, -112.000000)" fill="#DFDFDF">
            <g id="Header" sketch:type="MSLayerGroup">
                <g id="ícones" transform="translate(880.000000, 112.000000)" sketch:type="MSShapeGroup">
                    <path d="M260,40 C271.045696,40 280,31.0456955 280,20 C280,8.95430446 271.045696,0 260,0 C248.954304,0 240,8.95430446 240,20 C240,31.0456955 248.954304,40 260,40 Z M260,37.6 C269.720212,37.6 277.6,29.7202121 277.6,20 C277.6,10.2797879 269.720212,2.4 260,2.4 C250.279788,2.4 242.4,10.2797879 242.4,20 C242.4,29.7202121 250.279788,37.6 260,37.6 Z M259.710685,15.9520709 L259.754107,16.7003447 L259.030411,16.6087193 C256.396157,16.2574887 254.094804,15.066359 252.140825,13.065872 L251.185546,12.0732639 L250.939489,12.8062668 C250.418428,14.4402524 250.751328,16.1658634 251.836872,17.3264513 C252.415829,17.9678288 252.285564,18.0594542 251.286863,17.6776819 C250.939489,17.5555147 250.635537,17.4638893 250.606589,17.509702 C250.505272,17.6165983 250.852646,19.0062496 251.12765,19.5560017 C251.503972,20.3195465 252.27109,21.0678202 253.110577,21.5106761 L253.819799,21.8619067 L252.980312,21.8771776 C252.169772,21.8771776 252.140825,21.8924485 252.227668,22.2131372 C252.517147,23.2057453 253.660586,24.259437 254.934291,24.7175638 L255.831674,25.0382526 L255.050083,25.5269212 C253.892169,26.2293823 252.531621,26.6264255 251.171072,26.6569673 C250.519746,26.6722382 249.984211,26.7333217 249.984211,26.7791344 C249.984211,26.9318433 251.750029,27.7870134 252.777677,28.1229731 C255.860622,29.1155812 259.522524,28.6879961 262.272569,26.992927 C264.226548,25.7865263 266.180528,23.3889961 267.092385,21.0678202 C267.584498,19.8308778 268.076611,17.5707856 268.076611,16.4865521 C268.076611,15.784091 268.120033,15.6924657 268.930573,14.8525666 C269.408212,14.3638979 269.856903,13.8294167 269.943747,13.6767077 C270.088486,13.3865607 270.074012,13.3865607 269.335842,13.6461659 C268.105559,14.1042928 267.931872,14.0432092 268.539777,13.356019 C268.988468,12.8673503 269.524003,11.9816385 269.524003,11.7220333 C269.524003,11.6762207 269.306894,11.7525752 269.060838,11.8900131 C268.800307,12.0427221 268.22135,12.2717855 267.787133,12.4092235 L267.005541,12.6688287 L266.296319,12.1648892 C265.905523,11.8900131 265.355514,11.5845953 265.066036,11.4929699 C264.327866,11.2791774 263.1989,11.3097192 262.5331,11.5540535 C260.72386,12.2412437 259.58042,14.0126674 259.710685,15.9520709 C259.710685,15.9520709 259.58042,14.0126674 259.710685,15.9520709 Z" id="Twitter"></path>
                </g>
            </g>
        </g>
    </g>
</svg>