<?xml version="1.0" encoding="UTF-8" standalone="no"?>
<svg width="40px" height="40px" viewBox="0 0 40 40" version="1.1" xmlns="http://www.w3.org/2000/svg" xmlns:xlink="http://www.w3.org/1999/xlink" xmlns:sketch="http://www.bohemiancoding.com/sketch/ns">
    <!-- Generator: Sketch 3.3.2 (12043) - http://www.bohemiancoding.com/sketch -->
    <title>Email_footer</title>
    <desc>Created with Sketch.</desc>
    <defs></defs>
    <g id="Page-1" stroke="none" stroke-width="1" fill="none" fill-rule="evenodd" sketch:type="MSPage">
        <g id="Home" sketch:type="MSArtboardGroup" transform="translate(-470.000000, -2544.000000)" fill="#4A4A4A">
            <g id="Footer" sketch:type="MSLayerGroup" transform="translate(0.000000, 2444.000000)">
                <g id="ícones-footer" transform="translate(470.000000, 100.000000)" sketch:type="MSShapeGroup">
                    <path d="M20,0 C8.95430446,0 0,8.95430446 0,20 C0,31.0456955 8.95430446,40 20,40 C31.0456955,40 40,31.0456955 40,20 C40,8.95430446 31.0456955,0 20,0 Z M30.8356445,26.2888941 L30.8356445,12.776237 L22.9462795,20.4192413 L30.8356445,26.2888941 Z M9.16435547,26.2888941 L17.0535512,20.4184195 L9.16435547,12.776237 L9.16435547,26.2888941 Z M18.1164179,21.4490354 L9.16435547,27.223763 L30.8356445,27.223763 L21.8833705,21.4490354 L20,23.2733425 L18.1164179,21.4490354 Z M9.81449414,12.776237 L20,20.9554612 L30.1855059,12.776237 L9.81449414,12.776237 Z" id="Email"></path>
                </g>
            </g>
        </g>
    </g>
</svg>