<?xml version="1.0" encoding="UTF-8"?>
<svg width="40px" height="40px" viewBox="0 0 40 40" version="1.1" xmlns="http://www.w3.org/2000/svg" xmlns:xlink="http://www.w3.org/1999/xlink">
    <!-- Generator: Sketch 50 (54983) - http://www.bohemiancoding.com/sketch -->
    <title>LinkedIn_header</title>
    <desc>Created with Sketch.</desc>
    <defs></defs>
    <g id="Site" stroke="none" stroke-width="1" fill="none" fill-rule="evenodd">
        <g id="Home-alt-v2" transform="translate(-1380.000000, -100.000000)" fill="#FFFFFF">
            <g id="Header">
                <g id="ícones" transform="translate(1270.000000, 100.000000)">
                    <g id="LinkedIn" transform="translate(110.000000, 0.000000)">
                        <path d="M20,40 C31.0456955,40 40,31.0456955 40,20 C40,8.95430446 31.0456955,0 20,0 C8.95430446,0 0,8.95430446 0,20 C0,31.0456955 8.95430446,40 20,40 Z" opacity="0.302845982"></path>
                        <path d="M10.6117187,15.6868311 L14.6316827,15.6868311 L14.6316827,28.0965476 L10.6117187,28.0965476 L10.6117187,15.6868311 Z M12.885984,9.61171875 C14.2611883,9.61171875 15.108067,10.5384796 15.1341581,11.7552444 C15.1341581,12.9468059 14.2611883,13.9002527 12.8594914,13.9002527 L12.8338017,13.9002527 C11.4842068,13.9002527 10.6117187,12.9468059 10.6117187,11.7552444 C10.6117187,10.5384796 11.5107797,9.61171875 12.885984,9.61171875 Z M24.7597914,15.3999023 C27.405113,15.3999023 29.3882812,17.1739427 29.3882812,20.9856709 L29.3881207,28.1010231 L25.3683173,28.1010231 L25.3683173,21.4618177 C25.3683173,19.7941918 24.7866051,18.6562494 23.3313611,18.6562494 C22.2207612,18.6562494 21.5592502,19.4233886 21.2687152,20.1643361 C21.1624238,20.4298779 21.1363327,20.7998575 21.1363327,21.170743 L21.1363327,28.1013525 L17.1158871,28.1013525 C17.1158871,28.1013525 17.1688722,16.8560996 17.1158871,15.691636 L21.1363327,15.691636 L21.1363327,17.4493682 C21.6698766,16.6043949 22.625455,15.3999023 24.7597914,15.3999023 Z" id="Combined-Shape" opacity="0.403515625"></path>
                    </g>
                </g>
            </g>
        </g>
    </g>
</svg>