<?xml version="1.0" encoding="UTF-8" standalone="no"?>
<svg width="40px" height="40px" viewBox="0 0 40 40" version="1.1" xmlns="http://www.w3.org/2000/svg" xmlns:xlink="http://www.w3.org/1999/xlink" xmlns:sketch="http://www.bohemiancoding.com/sketch/ns">
    <!-- Generator: Sketch 3.3.2 (12043) - http://www.bohemiancoding.com/sketch -->
    <title>LinkedIn_hover</title>
    <desc>Created with Sketch.</desc>
    <defs></defs>
    <g id="Page-1" stroke="none" stroke-width="1" fill="none" fill-rule="evenodd" sketch:type="MSPage">
        <path d="M20,40 C31.0456955,40 40,31.0456955 40,20 C40,8.95430446 31.0456955,0 20,0 C8.95430446,0 0,8.95430446 0,20 C0,31.0456955 8.95430446,40 20,40 Z M10.6117187,15.6868311 L10.6117187,28.0965476 L14.6316827,28.0965476 L14.6316827,15.6868311 L10.6117187,15.6868311 Z M12.885984,9.61171875 C11.5107797,9.61171875 10.6117187,10.5384796 10.6117187,11.7552444 C10.6117187,12.9468059 11.4842068,13.9002527 12.8338017,13.9002527 L12.8594914,13.9002527 C14.2611883,13.9002527 15.1341581,12.9468059 15.1341581,11.7552444 C15.108067,10.5384796 14.2611883,9.61171875 12.885984,9.61171875 Z M24.7597914,15.3868311 C22.625455,15.3868311 21.6698766,16.5913237 21.1363327,17.436297 L21.1363327,15.6785647 L17.1158871,15.6785647 C17.1688722,16.8430283 17.1158871,28.0882812 17.1158871,28.0882812 L21.1363327,28.0882812 L21.1363327,21.1576717 C21.1363327,20.7867862 21.1624238,20.4168066 21.2687152,20.1512648 C21.5592502,19.4103173 22.2207612,18.6431781 23.3313611,18.6431781 C24.7866051,18.6431781 25.3683173,19.7811205 25.3683173,21.4487464 L25.3683173,28.0879518 L29.3881207,28.0879518 L29.3882813,20.9725996 C29.3882813,17.1608714 27.405113,15.3868311 24.7597914,15.3868311 Z" id="LinkedIn" fill="#0077B5" sketch:type="MSShapeGroup"></path>
    </g>
</svg>