<?xml version="1.0" encoding="UTF-8" standalone="no"?>
<svg width="40px" height="40px" viewBox="0 0 40 40" version="1.1" xmlns="http://www.w3.org/2000/svg" xmlns:xlink="http://www.w3.org/1999/xlink" xmlns:sketch="http://www.bohemiancoding.com/sketch/ns">
    <!-- Generator: Sketch 3.3.2 (12043) - http://www.bohemiancoding.com/sketch -->
    <title>Twitter_hover</title>
    <desc>Created with Sketch.</desc>
    <defs></defs>
    <g id="Page-1" stroke="none" stroke-width="1" fill="none" fill-rule="evenodd" sketch:type="MSPage">
        <path d="M20,40 C31.0456955,40 40,31.0456955 40,20 C40,8.95430446 31.0456955,0 20,0 C8.95430446,0 0,8.95430446 0,20 C0,31.0456955 8.95430446,40 20,40 Z M19.6822554,16.0542975 L19.729944,16.8761011 L18.9351333,16.7754721 C16.0420225,16.3897275 13.5145246,15.0815504 11.3685358,12.8844837 L10.3193857,11.7943361 L10.0491501,12.5993681 C9.4768864,14.3939188 9.84249928,16.2890985 11.0347153,17.5637326 C11.6705638,18.2681357 11.5274979,18.3687647 10.4306592,17.9494772 C10.0491501,17.8153051 9.7153296,17.7146761 9.68353715,17.7649907 C9.5722637,17.8823912 9.95377281,19.4085978 10.2558008,20.0123719 C10.6691024,20.850947 11.5116017,21.6727505 12.433582,22.1591241 L13.2124965,22.5448686 L12.2905161,22.5616401 C11.4003282,22.5616401 11.3685358,22.5784116 11.4639131,22.9306131 C11.7818374,24.0207608 13.0376382,25.1779944 14.436505,25.6811394 L15.4220701,26.033341 L14.5636746,26.570029 C13.2919776,27.3415181 11.7977335,27.7775772 10.3034895,27.8111202 C9.58815985,27.8278916 9,27.8949776 9,27.9452922 C9,28.1130071 10.939338,29.0522113 12.0679692,29.4211843 C15.4538626,30.5113319 19.4756046,30.0417298 22.4958851,28.1800932 C24.6418739,26.8551445 26.7878628,24.2220188 27.7893242,21.6727505 C28.3297954,20.3142589 28.8702667,17.8320767 28.8702667,16.6413 C28.8702667,15.869811 28.9179553,15.769182 29.8081432,14.8467494 C30.3327183,14.3100613 30.8255009,13.7230588 30.9208782,13.5553437 C31.0798403,13.2366852 31.0639442,13.2366852 30.2532373,13.5218007 C28.9020591,14.0249458 28.7113045,13.9578598 29.3789455,13.2031422 C29.8717281,12.6664541 30.459888,11.6937071 30.459888,11.4085915 C30.459888,11.358277 30.2214448,11.4421346 29.9512092,11.593078 C29.6650773,11.7607931 29.0292288,12.0123656 28.5523424,12.1633091 L27.6939469,12.4484246 L26.9150324,11.894965 C26.4858346,11.593078 25.8817786,11.257648 25.5638543,11.157019 C24.7531474,10.922218 23.5132428,10.955761 22.7820169,11.224105 C20.7949903,11.9788226 19.5391894,13.9243168 19.6822554,16.0542975 C19.6822554,16.0542975 19.5391894,13.9243168 19.6822554,16.0542975 Z" id="Twitter" fill="#55ACEE" sketch:type="MSShapeGroup"></path>
    </g>
</svg>