<?xml version="1.0" encoding="UTF-8" standalone="no"?>
<svg width="40px" height="40px" viewBox="0 0 40 40" version="1.1" xmlns="http://www.w3.org/2000/svg" xmlns:xlink="http://www.w3.org/1999/xlink" xmlns:sketch="http://www.bohemiancoding.com/sketch/ns">
    <!-- Generator: Sketch 3.3.2 (12043) - http://www.bohemiancoding.com/sketch -->
    <title>Twitter_footer</title>
    <desc>Created with Sketch.</desc>
    <defs></defs>
    <g id="Page-1" stroke="none" stroke-width="1" fill="none" fill-rule="evenodd" sketch:type="MSPage">
        <g id="Home" sketch:type="MSArtboardGroup" transform="translate(-710.000000, -2544.000000)" fill="#4A4A4A">
            <g id="Footer" sketch:type="MSLayerGroup" transform="translate(0.000000, 2444.000000)">
                <g id="ícones-footer" transform="translate(470.000000, 100.000000)" sketch:type="MSShapeGroup">
                    <path d="M260,40 C271.045696,40 280,31.0456955 280,20 C280,8.95430446 271.045696,0 260,0 C248.954304,0 240,8.95430446 240,20 C240,31.0456955 248.954304,40 260,40 Z M259.682255,16.0542975 L259.729944,16.8761011 L258.935133,16.7754721 C256.042023,16.3897275 253.514525,15.0815504 251.368536,12.8844837 L250.319386,11.7943361 L250.04915,12.5993681 C249.476886,14.3939188 249.842499,16.2890985 251.034715,17.5637326 C251.670564,18.2681357 251.527498,18.3687647 250.430659,17.9494772 C250.04915,17.8153051 249.71533,17.7146761 249.683537,17.7649907 C249.572264,17.8823912 249.953773,19.4085978 250.255801,20.0123719 C250.669102,20.850947 251.511602,21.6727505 252.433582,22.1591241 L253.212496,22.5448686 L252.290516,22.5616401 C251.400328,22.5616401 251.368536,22.5784116 251.463913,22.9306131 C251.781837,24.0207608 253.037638,25.1779944 254.436505,25.6811394 L255.42207,26.033341 L254.563675,26.570029 C253.291978,27.3415181 251.797734,27.7775772 250.303489,27.8111202 C249.58816,27.8278916 249,27.8949776 249,27.9452922 C249,28.1130071 250.939338,29.0522113 252.067969,29.4211843 C255.453863,30.5113319 259.475605,30.0417298 262.495885,28.1800932 C264.641874,26.8551445 266.787863,24.2220188 267.789324,21.6727505 C268.329795,20.3142589 268.870267,17.8320767 268.870267,16.6413 C268.870267,15.869811 268.917955,15.769182 269.808143,14.8467494 C270.332718,14.3100613 270.825501,13.7230588 270.920878,13.5553437 C271.07984,13.2366852 271.063944,13.2366852 270.253237,13.5218007 C268.902059,14.0249458 268.711305,13.9578598 269.378946,13.2031422 C269.871728,12.6664541 270.459888,11.6937071 270.459888,11.4085915 C270.459888,11.358277 270.221445,11.4421346 269.951209,11.593078 C269.665077,11.7607931 269.029229,12.0123656 268.552342,12.1633091 L267.693947,12.4484246 L266.915032,11.894965 C266.485835,11.593078 265.881779,11.257648 265.563854,11.157019 C264.753147,10.922218 263.513243,10.955761 262.782017,11.224105 C260.79499,11.9788226 259.539189,13.9243168 259.682255,16.0542975 C259.682255,16.0542975 259.539189,13.9243168 259.682255,16.0542975 Z" id="Twitter"></path>
                </g>
            </g>
        </g>
    </g>
</svg>